<mxfile host="app.diagrams.net" modified="2023-05-30T17:58:29.386Z" agent="Mozilla/5.0 (Windows NT 10.0; Win64; x64; rv:109.0) Gecko/20100101 Firefox/113.0" etag="siymu8HRrtzaTtJY3gCA" version="21.3.5">
  <diagram name="Page-1" id="lD1P7TDORegNlSz0LweX">
    <mxGraphModel dx="1195" dy="685" grid="1" gridSize="10" guides="1" tooltips="1" connect="1" arrows="1" fold="1" page="1" pageScale="1" pageWidth="850" pageHeight="1100" math="0" shadow="0">
      <root>
        <mxCell id="0" />
        <mxCell id="1" parent="0" />
        <mxCell id="jBUWxnk9h5pIj459O3R6-1" value="&lt;div&gt;GRU&lt;/div&gt;&lt;div&gt;idx = 0&lt;br&gt;&lt;/div&gt;" style="rounded=0;whiteSpace=wrap;html=1;" vertex="1" parent="1">
          <mxGeometry x="80" y="200" width="120" height="40" as="geometry" />
        </mxCell>
        <mxCell id="jBUWxnk9h5pIj459O3R6-2" value="&lt;div&gt;GRU&lt;/div&gt;&lt;div&gt;idx = 1&lt;br&gt;&lt;/div&gt;" style="rounded=0;whiteSpace=wrap;html=1;" vertex="1" parent="1">
          <mxGeometry x="80" y="280" width="120" height="40" as="geometry" />
        </mxCell>
        <mxCell id="jBUWxnk9h5pIj459O3R6-3" value="&lt;div&gt;GRU&lt;/div&gt;&lt;div&gt;idx = 2&lt;br&gt;&lt;/div&gt;" style="rounded=0;whiteSpace=wrap;html=1;" vertex="1" parent="1">
          <mxGeometry x="80" y="360" width="120" height="40" as="geometry" />
        </mxCell>
        <mxCell id="jBUWxnk9h5pIj459O3R6-4" value="&lt;div&gt;GRU&lt;/div&gt;&lt;div&gt;idx = 63&lt;br&gt;&lt;/div&gt;" style="rounded=0;whiteSpace=wrap;html=1;" vertex="1" parent="1">
          <mxGeometry x="80" y="480" width="120" height="40" as="geometry" />
        </mxCell>
        <mxCell id="jBUWxnk9h5pIj459O3R6-7" value="state[64]" style="ellipse;whiteSpace=wrap;html=1;" vertex="1" parent="1">
          <mxGeometry x="220" y="180" width="80" height="40" as="geometry" />
        </mxCell>
        <mxCell id="jBUWxnk9h5pIj459O3R6-8" value="state[64]" style="ellipse;whiteSpace=wrap;html=1;" vertex="1" parent="1">
          <mxGeometry x="220" y="260" width="80" height="40" as="geometry" />
        </mxCell>
        <mxCell id="jBUWxnk9h5pIj459O3R6-9" value="state[64]" style="ellipse;whiteSpace=wrap;html=1;" vertex="1" parent="1">
          <mxGeometry x="220" y="340" width="80" height="40" as="geometry" />
        </mxCell>
        <mxCell id="jBUWxnk9h5pIj459O3R6-10" value="state[64]" style="ellipse;whiteSpace=wrap;html=1;" vertex="1" parent="1">
          <mxGeometry x="220" y="460" width="80" height="40" as="geometry" />
        </mxCell>
        <mxCell id="jBUWxnk9h5pIj459O3R6-11" value="" style="endArrow=none;dashed=1;html=1;dashPattern=1 3;strokeWidth=2;rounded=0;entryX=0.5;entryY=1;entryDx=0;entryDy=0;exitX=0.5;exitY=0;exitDx=0;exitDy=0;" edge="1" parent="1" source="jBUWxnk9h5pIj459O3R6-4" target="jBUWxnk9h5pIj459O3R6-3">
          <mxGeometry width="50" height="50" relative="1" as="geometry">
            <mxPoint x="400" y="440" as="sourcePoint" />
            <mxPoint x="450" y="390" as="targetPoint" />
          </mxGeometry>
        </mxCell>
        <mxCell id="jBUWxnk9h5pIj459O3R6-14" value="" style="endArrow=classic;startArrow=classic;html=1;rounded=0;" edge="1" parent="1" source="jBUWxnk9h5pIj459O3R6-1" target="jBUWxnk9h5pIj459O3R6-7">
          <mxGeometry width="50" height="50" relative="1" as="geometry">
            <mxPoint x="250" y="280" as="sourcePoint" />
            <mxPoint x="300" y="230" as="targetPoint" />
          </mxGeometry>
        </mxCell>
        <mxCell id="jBUWxnk9h5pIj459O3R6-15" value="" style="endArrow=classic;startArrow=classic;html=1;rounded=0;" edge="1" parent="1" source="jBUWxnk9h5pIj459O3R6-2" target="jBUWxnk9h5pIj459O3R6-8">
          <mxGeometry width="50" height="50" relative="1" as="geometry">
            <mxPoint x="210" y="230" as="sourcePoint" />
            <mxPoint x="250" y="230" as="targetPoint" />
          </mxGeometry>
        </mxCell>
        <mxCell id="jBUWxnk9h5pIj459O3R6-16" value="" style="endArrow=classic;startArrow=classic;html=1;rounded=0;" edge="1" parent="1" source="jBUWxnk9h5pIj459O3R6-3" target="jBUWxnk9h5pIj459O3R6-9">
          <mxGeometry width="50" height="50" relative="1" as="geometry">
            <mxPoint x="200" y="379.88" as="sourcePoint" />
            <mxPoint x="240" y="379.88" as="targetPoint" />
          </mxGeometry>
        </mxCell>
        <mxCell id="jBUWxnk9h5pIj459O3R6-17" value="" style="endArrow=classic;startArrow=classic;html=1;rounded=0;" edge="1" parent="1" source="jBUWxnk9h5pIj459O3R6-4" target="jBUWxnk9h5pIj459O3R6-10">
          <mxGeometry width="50" height="50" relative="1" as="geometry">
            <mxPoint x="210" y="470" as="sourcePoint" />
            <mxPoint x="250" y="470" as="targetPoint" />
          </mxGeometry>
        </mxCell>
        <mxCell id="jBUWxnk9h5pIj459O3R6-19" value="&lt;div&gt;INPUT [64]&lt;/div&gt;&lt;div&gt;1 of&amp;nbsp; 431&lt;br&gt;&lt;/div&gt;" style="rounded=1;whiteSpace=wrap;html=1;" vertex="1" parent="1">
          <mxGeometry x="80" y="40" width="120" height="40" as="geometry" />
        </mxCell>
        <mxCell id="jBUWxnk9h5pIj459O3R6-20" value="" style="shape=flexArrow;endArrow=classic;html=1;rounded=0;exitX=0.5;exitY=1;exitDx=0;exitDy=0;" edge="1" parent="1" source="jBUWxnk9h5pIj459O3R6-19">
          <mxGeometry width="50" height="50" relative="1" as="geometry">
            <mxPoint x="370" y="210" as="sourcePoint" />
            <mxPoint x="140" y="160" as="targetPoint" />
          </mxGeometry>
        </mxCell>
        <mxCell id="jBUWxnk9h5pIj459O3R6-22" value="&lt;div&gt;GRU&lt;/div&gt;&lt;div&gt;idx = 0&lt;br&gt;&lt;/div&gt;" style="rounded=0;whiteSpace=wrap;html=1;" vertex="1" parent="1">
          <mxGeometry x="1340" y="200" width="120" height="40" as="geometry" />
        </mxCell>
        <mxCell id="jBUWxnk9h5pIj459O3R6-23" value="&lt;div&gt;GRU&lt;/div&gt;&lt;div&gt;idx = 1&lt;br&gt;&lt;/div&gt;" style="rounded=0;whiteSpace=wrap;html=1;" vertex="1" parent="1">
          <mxGeometry x="1340" y="280" width="120" height="40" as="geometry" />
        </mxCell>
        <mxCell id="jBUWxnk9h5pIj459O3R6-24" value="&lt;div&gt;GRU&lt;/div&gt;&lt;div&gt;idx = 2&lt;br&gt;&lt;/div&gt;" style="rounded=0;whiteSpace=wrap;html=1;" vertex="1" parent="1">
          <mxGeometry x="1340" y="360" width="120" height="40" as="geometry" />
        </mxCell>
        <mxCell id="jBUWxnk9h5pIj459O3R6-25" value="&lt;div&gt;GRU&lt;/div&gt;&lt;div&gt;idx = 63&lt;br&gt;&lt;/div&gt;" style="rounded=0;whiteSpace=wrap;html=1;" vertex="1" parent="1">
          <mxGeometry x="1340" y="480" width="120" height="40" as="geometry" />
        </mxCell>
        <mxCell id="jBUWxnk9h5pIj459O3R6-26" value="state[64]" style="ellipse;whiteSpace=wrap;html=1;" vertex="1" parent="1">
          <mxGeometry x="1240" y="180" width="80" height="40" as="geometry" />
        </mxCell>
        <mxCell id="jBUWxnk9h5pIj459O3R6-27" value="state[64]" style="ellipse;whiteSpace=wrap;html=1;" vertex="1" parent="1">
          <mxGeometry x="1240" y="258" width="80" height="40" as="geometry" />
        </mxCell>
        <mxCell id="jBUWxnk9h5pIj459O3R6-28" value="state[64]" style="ellipse;whiteSpace=wrap;html=1;" vertex="1" parent="1">
          <mxGeometry x="1240" y="340" width="80" height="40" as="geometry" />
        </mxCell>
        <mxCell id="jBUWxnk9h5pIj459O3R6-29" value="state[64]" style="ellipse;whiteSpace=wrap;html=1;" vertex="1" parent="1">
          <mxGeometry x="1240" y="460" width="80" height="40" as="geometry" />
        </mxCell>
        <mxCell id="jBUWxnk9h5pIj459O3R6-30" value="" style="endArrow=none;dashed=1;html=1;dashPattern=1 3;strokeWidth=2;rounded=0;entryX=0.5;entryY=1;entryDx=0;entryDy=0;exitX=0.5;exitY=0;exitDx=0;exitDy=0;" edge="1" parent="1" source="jBUWxnk9h5pIj459O3R6-25" target="jBUWxnk9h5pIj459O3R6-24">
          <mxGeometry width="50" height="50" relative="1" as="geometry">
            <mxPoint x="1660" y="440" as="sourcePoint" />
            <mxPoint x="1710" y="390" as="targetPoint" />
          </mxGeometry>
        </mxCell>
        <mxCell id="jBUWxnk9h5pIj459O3R6-31" value="" style="endArrow=classic;startArrow=classic;html=1;rounded=0;" edge="1" parent="1" source="jBUWxnk9h5pIj459O3R6-22" target="jBUWxnk9h5pIj459O3R6-26">
          <mxGeometry width="50" height="50" relative="1" as="geometry">
            <mxPoint x="1510" y="280" as="sourcePoint" />
            <mxPoint x="1560" y="230" as="targetPoint" />
          </mxGeometry>
        </mxCell>
        <mxCell id="jBUWxnk9h5pIj459O3R6-32" value="" style="endArrow=classic;startArrow=classic;html=1;rounded=0;" edge="1" parent="1" source="jBUWxnk9h5pIj459O3R6-23" target="jBUWxnk9h5pIj459O3R6-27">
          <mxGeometry width="50" height="50" relative="1" as="geometry">
            <mxPoint x="1470" y="230" as="sourcePoint" />
            <mxPoint x="1510" y="230" as="targetPoint" />
          </mxGeometry>
        </mxCell>
        <mxCell id="jBUWxnk9h5pIj459O3R6-33" value="" style="endArrow=classic;startArrow=classic;html=1;rounded=0;" edge="1" parent="1" source="jBUWxnk9h5pIj459O3R6-24" target="jBUWxnk9h5pIj459O3R6-28">
          <mxGeometry width="50" height="50" relative="1" as="geometry">
            <mxPoint x="1460" y="379.88" as="sourcePoint" />
            <mxPoint x="1500" y="379.88" as="targetPoint" />
          </mxGeometry>
        </mxCell>
        <mxCell id="jBUWxnk9h5pIj459O3R6-34" value="" style="endArrow=classic;startArrow=classic;html=1;rounded=0;" edge="1" parent="1" source="jBUWxnk9h5pIj459O3R6-25" target="jBUWxnk9h5pIj459O3R6-29">
          <mxGeometry width="50" height="50" relative="1" as="geometry">
            <mxPoint x="1470" y="470" as="sourcePoint" />
            <mxPoint x="1510" y="470" as="targetPoint" />
          </mxGeometry>
        </mxCell>
        <mxCell id="jBUWxnk9h5pIj459O3R6-35" value="&lt;div&gt;INPUT [64]&lt;/div&gt;&lt;div&gt;2 of&amp;nbsp; 431&lt;br&gt;&lt;/div&gt;" style="rounded=1;whiteSpace=wrap;html=1;" vertex="1" parent="1">
          <mxGeometry x="1340" y="40" width="120" height="40" as="geometry" />
        </mxCell>
        <mxCell id="jBUWxnk9h5pIj459O3R6-36" value="" style="shape=flexArrow;endArrow=classic;html=1;rounded=0;exitX=0.5;exitY=1;exitDx=0;exitDy=0;" edge="1" parent="1" source="jBUWxnk9h5pIj459O3R6-35">
          <mxGeometry width="50" height="50" relative="1" as="geometry">
            <mxPoint x="1630" y="210" as="sourcePoint" />
            <mxPoint x="1400" y="160" as="targetPoint" />
          </mxGeometry>
        </mxCell>
        <mxCell id="jBUWxnk9h5pIj459O3R6-38" value="SYNC STATE" style="swimlane;whiteSpace=wrap;html=1;" vertex="1" parent="1">
          <mxGeometry x="665" y="280" width="210" height="130" as="geometry" />
        </mxCell>
        <mxCell id="jBUWxnk9h5pIj459O3R6-39" value="&lt;div align=&quot;left&quot;&gt;&lt;font color=&quot;#0000ff&quot;&gt;void&lt;/font&gt; gru_syncState() {&lt;br&gt;&amp;nbsp;&amp;nbsp;&amp;nbsp; &lt;font color=&quot;#330066&quot;&gt;for&lt;/font&gt; (&lt;font color=&quot;#0000ff&quot;&gt;int &lt;/font&gt;ss = 0; j &amp;lt; &lt;font color=&quot;#cc0066&quot;&gt;64&lt;/font&gt;; ++ss) {&lt;br&gt;&amp;nbsp;&amp;nbsp;&amp;nbsp;&amp;nbsp;&amp;nbsp;&amp;nbsp;&amp;nbsp; &lt;font color=&quot;#330066&quot;&gt;for&lt;/font&gt; (&lt;font color=&quot;#0000ff&quot;&gt;int &lt;/font&gt;idx = 0; i &amp;lt; &lt;font color=&quot;#cc0066&quot;&gt;64&lt;/font&gt;; ++idx) {&lt;br&gt;&amp;nbsp;&amp;nbsp;&amp;nbsp;&amp;nbsp;&amp;nbsp;&amp;nbsp;&amp;nbsp;&amp;nbsp;&amp;nbsp;&amp;nbsp;&amp;nbsp; &lt;font color=&quot;#994c00&quot;&gt;state&lt;/font&gt;[idx][ss] = &lt;font color=&quot;#994c00&quot;&gt;state&lt;/font&gt;[ss][ss];&lt;br&gt;&amp;nbsp;&amp;nbsp;&amp;nbsp;&amp;nbsp;&amp;nbsp;&amp;nbsp;&amp;nbsp; }&lt;br&gt;&amp;nbsp;&amp;nbsp;&amp;nbsp; }&lt;br&gt;}&lt;/div&gt;" style="text;html=1;align=left;verticalAlign=middle;resizable=0;points=[];autosize=1;strokeColor=none;fillColor=none;" vertex="1" parent="1">
          <mxGeometry x="670" y="298" width="210" height="110" as="geometry" />
        </mxCell>
        <mxCell id="jBUWxnk9h5pIj459O3R6-43" value="" style="shape=flexArrow;endArrow=classic;html=1;rounded=0;" edge="1" parent="1">
          <mxGeometry width="50" height="50" relative="1" as="geometry">
            <mxPoint x="600" y="344.66" as="sourcePoint" />
            <mxPoint x="650" y="344.66" as="targetPoint" />
          </mxGeometry>
        </mxCell>
        <mxCell id="jBUWxnk9h5pIj459O3R6-44" value="" style="shape=flexArrow;endArrow=classic;html=1;rounded=0;" edge="1" parent="1">
          <mxGeometry width="50" height="50" relative="1" as="geometry">
            <mxPoint x="890" y="344.66" as="sourcePoint" />
            <mxPoint x="940" y="344.66" as="targetPoint" />
          </mxGeometry>
        </mxCell>
        <mxCell id="jBUWxnk9h5pIj459O3R6-45" value="" style="shape=flexArrow;endArrow=classic;html=1;rounded=0;" edge="1" parent="1">
          <mxGeometry width="50" height="50" relative="1" as="geometry">
            <mxPoint x="1520" y="340.00000000000006" as="sourcePoint" />
            <mxPoint x="1570" y="340.00000000000006" as="targetPoint" />
          </mxGeometry>
        </mxCell>
        <mxCell id="jBUWxnk9h5pIj459O3R6-50" value="state = [ a, 0, 0, ... ... ... , 0 ]" style="rounded=0;whiteSpace=wrap;html=1;fillColor=#fff2cc;strokeColor=#d6b656;" vertex="1" parent="1">
          <mxGeometry x="360" y="200" width="180" height="40" as="geometry" />
        </mxCell>
        <mxCell id="jBUWxnk9h5pIj459O3R6-51" value="state = [ 0, b, 0, ... ... ... , 0 ]" style="rounded=0;whiteSpace=wrap;html=1;fillColor=#fff2cc;strokeColor=#d6b656;" vertex="1" parent="1">
          <mxGeometry x="360" y="280" width="180" height="40" as="geometry" />
        </mxCell>
        <mxCell id="jBUWxnk9h5pIj459O3R6-52" value="state = [ 0, 0, c, ... ... ... , 0 ]" style="rounded=0;whiteSpace=wrap;html=1;fillColor=#fff2cc;strokeColor=#d6b656;" vertex="1" parent="1">
          <mxGeometry x="360" y="360" width="180" height="40" as="geometry" />
        </mxCell>
        <mxCell id="jBUWxnk9h5pIj459O3R6-53" value="state = [ 0, 0, 0, ... ... ... , z ]" style="rounded=0;whiteSpace=wrap;html=1;fillColor=#fff2cc;strokeColor=#d6b656;" vertex="1" parent="1">
          <mxGeometry x="360" y="480" width="180" height="40" as="geometry" />
        </mxCell>
        <mxCell id="jBUWxnk9h5pIj459O3R6-54" value="state = [ a, b, c, ... ... ... , z ]" style="rounded=0;whiteSpace=wrap;html=1;fillColor=#d5e8d4;strokeColor=#82b366;" vertex="1" parent="1">
          <mxGeometry x="1000" y="200" width="180" height="40" as="geometry" />
        </mxCell>
        <mxCell id="jBUWxnk9h5pIj459O3R6-55" value="state = [ a, b, c, ... ... ... , z ]" style="rounded=0;whiteSpace=wrap;html=1;fillColor=#d5e8d4;strokeColor=#82b366;" vertex="1" parent="1">
          <mxGeometry x="1000" y="280" width="180" height="40" as="geometry" />
        </mxCell>
        <mxCell id="jBUWxnk9h5pIj459O3R6-56" value="state = [ a, b, c, ... ... ... , z ]" style="rounded=0;whiteSpace=wrap;html=1;fillColor=#d5e8d4;strokeColor=#82b366;" vertex="1" parent="1">
          <mxGeometry x="1000" y="360" width="180" height="40" as="geometry" />
        </mxCell>
        <mxCell id="jBUWxnk9h5pIj459O3R6-57" value="state = [ a, b, c, ... ... ... , z ]" style="rounded=0;whiteSpace=wrap;html=1;fillColor=#d5e8d4;strokeColor=#82b366;" vertex="1" parent="1">
          <mxGeometry x="1000" y="480" width="180" height="40" as="geometry" />
        </mxCell>
        <mxCell id="jBUWxnk9h5pIj459O3R6-59" value="" style="endArrow=none;dashed=1;html=1;dashPattern=1 3;strokeWidth=2;rounded=0;" edge="1" parent="1">
          <mxGeometry width="50" height="50" relative="1" as="geometry">
            <mxPoint x="320" y="560" as="sourcePoint" />
            <mxPoint x="320" y="120" as="targetPoint" />
          </mxGeometry>
        </mxCell>
        <mxCell id="jBUWxnk9h5pIj459O3R6-60" value="" style="endArrow=none;dashed=1;html=1;dashPattern=1 3;strokeWidth=2;rounded=0;" edge="1" parent="1">
          <mxGeometry width="50" height="50" relative="1" as="geometry">
            <mxPoint x="580" y="560" as="sourcePoint" />
            <mxPoint x="580" y="120" as="targetPoint" />
          </mxGeometry>
        </mxCell>
        <mxCell id="jBUWxnk9h5pIj459O3R6-61" value="" style="endArrow=none;dashed=1;html=1;dashPattern=1 3;strokeWidth=2;rounded=0;" edge="1" parent="1">
          <mxGeometry width="50" height="50" relative="1" as="geometry">
            <mxPoint x="959.58" y="565" as="sourcePoint" />
            <mxPoint x="959.58" y="125" as="targetPoint" />
          </mxGeometry>
        </mxCell>
        <mxCell id="jBUWxnk9h5pIj459O3R6-62" value="" style="endArrow=none;dashed=1;html=1;dashPattern=1 3;strokeWidth=2;rounded=0;" edge="1" parent="1">
          <mxGeometry width="50" height="50" relative="1" as="geometry">
            <mxPoint x="1219.58" y="565" as="sourcePoint" />
            <mxPoint x="1219.58" y="125" as="targetPoint" />
          </mxGeometry>
        </mxCell>
      </root>
    </mxGraphModel>
  </diagram>
</mxfile>
